<svg width="35.146973" height="40.000000" viewBox="0 0 35.147 40" fill="none" xmlns="http://www.w3.org/2000/svg" xmlns:xlink="http://www.w3.org/1999/xlink">
	<desc>
			Created with Pixso.
	</desc>
	<defs/>
	<path d="M27.5259 10.0781C29.5635 10.443 31.2344 11.5367 32.5405 13.3594C33.6899 14.9742 34.4736 17.0055 34.8911 19.4531C35.2573 21.693 35.23 23.932 34.8125 26.1719C34.1858 29.8695 32.9321 32.9688 31.0515 35.4688C28.8047 38.4899 25.9844 40 22.5889 40C21.7527 40 20.8396 39.7399 19.8462 39.2188C19.167 38.8024 18.4099 38.5938 17.5735 38.5938C16.7373 38.5938 15.981 38.8024 15.3008 39.2188C14.3076 39.7399 13.3943 40 12.5581 40C9.1626 40 6.34229 38.4899 4.09546 35.4688C2.21509 32.9688 0.961182 29.8695 0.334473 26.1719C-0.0830078 23.932 -0.110352 21.693 0.256104 19.4531C0.67334 17.0055 1.45703 14.9742 2.60645 13.3594C3.9126 11.5367 5.58374 10.443 7.62109 10.0781C8.87476 9.86951 10.5984 10.0524 12.7927 10.625C14.6731 11.1461 16.2666 11.7711 17.5728 12.5C18.8789 11.7711 20.4724 11.1461 22.3528 10.625C24.5479 10.0524 26.2722 9.86951 27.5259 10.0781ZM23.2158 6.875C22.4846 7.55237 21.5173 8.04688 20.3162 8.35938C19.48 8.61951 18.5667 8.75 17.5735 8.75L16.3984 8.67188C16.2939 7.94299 16.2939 7.10938 16.3984 6.17188C16.6079 4.29688 17.208 2.86487 18.2004 1.875C18.9316 1.19763 19.8989 0.703125 21.0999 0.390625C21.9363 0.130493 22.8494 0 23.8425 0L25.0178 0.078125L25.0964 1.25C25.0964 2.23987 24.9653 3.15076 24.7048 3.98438C24.3918 5.18201 23.896 6.14612 23.2158 6.875Z" fill="#000000" fill-opacity="1.000000" fill-rule="nonzero"/>
</svg>
